HIERARCHY
ROOT Hips
{
  OFFSET 0 89.5177 0.535
  CHANNELS 6 Xposition Yposition Zposition Zrotation Xrotation Yrotation
  JOINT Spine
  {
    OFFSET 12.0259 -0.162855 1.69034e-005
    CHANNELS 3 Zrotation Xrotation Yrotation
    JOINT Spine1
    {
      OFFSET 15.3169 -0.0121922 0
      CHANNELS 3 Zrotation Xrotation Yrotation
      JOINT Spine2
      {
        OFFSET 15.3176 -0.0121908 0
        CHANNELS 3 Zrotation Xrotation Yrotation
        JOINT Neck
        {
          OFFSET 19.9142 1.56338 0
          CHANNELS 3 Zrotation Xrotation Yrotation
          JOINT Head
          {
            OFFSET 6.92651 0 0
            CHANNELS 3 Zrotation Xrotation Yrotation
            End Site
            {
              OFFSET 20.7666 0 0
            }
          }
          JOINT LeftShoulder
          {
            OFFSET -6.20654 0.708824 7.28219
            CHANNELS 3 Zrotation Xrotation Yrotation
            JOINT LeftArm
            {
              OFFSET 14.108 0 -1.52588e-005
              CHANNELS 3 Zrotation Xrotation Yrotation
              JOINT LeftForeArm
              {
                OFFSET 28.5802 0 0
                CHANNELS 3 Zrotation Xrotation Yrotation
                JOINT LeftHand
                {
                  OFFSET 27.092 0 0
                  CHANNELS 3 Zrotation Xrotation Yrotation
                  End Site
                  {
                    OFFSET 9.55928 -0.186424 0.145352
                  }
                }
              }
            }
          }
          JOINT RightShoulder
          {
            OFFSET -6.20654 0.708866 -7.28218
            CHANNELS 3 Zrotation Xrotation Yrotation
            JOINT RightArm
            {
              OFFSET 14.108 0 1.52588e-005
              CHANNELS 3 Zrotation Xrotation Yrotation
              JOINT RightForeArm
              {
                OFFSET 28.5802 0 0
                CHANNELS 3 Zrotation Xrotation Yrotation
                JOINT RightHand
                {
                  OFFSET 27.092 0 0
                  CHANNELS 3 Zrotation Xrotation Yrotation
                  End Site
                  {
                    OFFSET 9.55929 -0.186417 -0.145354
                  }
                }
              }
            }
          }
        }
      }
    }
  }
  JOINT LeftUpLeg
  {
    OFFSET 0.005 -0.535 8.837
    CHANNELS 3 Zrotation Xrotation Yrotation
    JOINT LeftLeg
    {
      OFFSET 39.9035 0 0
      CHANNELS 3 Zrotation Xrotation Yrotation
      JOINT LeftFoot
      {
        OFFSET 39.6689 0 0
        CHANNELS 3 Zrotation Xrotation Yrotation
        JOINT LeftToe
        {
          OFFSET 10.1624 13.6296 0
          CHANNELS 3 Zrotation Xrotation Yrotation
          End Site
          {
            OFFSET 8.38147 0 0
          }
        }
      }
    }
  }
  JOINT RightUpLeg
  {
    OFFSET 0.005 -0.535 -8.837
    CHANNELS 3 Zrotation Xrotation Yrotation
    JOINT RightLeg
    {
      OFFSET 39.9035 0 0
      CHANNELS 3 Zrotation Xrotation Yrotation
      JOINT RightFoot
      {
        OFFSET 39.6689 0 0
        CHANNELS 3 Zrotation Xrotation Yrotation
        JOINT RightToe
        {
          OFFSET 10.1624 13.6296 0
          CHANNELS 3 Zrotation Xrotation Yrotation
          End Site
          {
            OFFSET 8.38147 0 0
          }
        }
      }
    }
  }
}
MOTION
Frames:	16
Frame Time:	0.0333333
586.214 81.9118 -36.8522 20.2167 82.715 73.2256 3.98999 -4.86207 0.697209 8.08271 -9.66253 1.74313 8.08271 -9.66253 1.74312 -8.30748e-012 -9.0191e-006 -5.27751e-005 -4.03228 5.74953 -1.57206 179.789 0.767696 -74.6403 -18.5942 -4.26727 60.9833 -57.7917 -1.59028e-015 -3.18055e-015 -55.6559 -45.773 -52.2552 -176.245 12.2984 72.8731 23.1936 12.8926 -51.7952 -11.3505 0 -3.18055e-015 -37.0618 39.9289 38.6779 23.3068 4.43179 174.034 -33.6499 -3.97569e-016 3.97569e-016 21.57 9.84788 1.96166 90 0 -7.95139e-016 -26.5251 -12.9811 -175.912 -36.0595 3.18056e-015 -2.28602e-015 6.27721 0.0692115 -14.0455 90 -9.93923e-017 -0 
586.183 82.396 -31.8528 18.4913 81.5536 74.4095 4.0459 -4.72928 0.779699 8.19782 -9.39036 1.90333 8.19782 -9.39036 1.90332 -8.3043e-012 -9.0191e-006 -5.27751e-005 -2.56191 5.37971 -1.16064 179.811 0.685704 -74.6182 -17.0212 -2.86468 62.3744 -51.9135 0 3.18055e-015 -54.4204 -45.6073 -50.9018 -176.354 11.9153 72.8483 23.8608 14.1386 -52.3182 -11.2392 3.18055e-015 6.36111e-015 -37.9466 39.844 39.4683 15.3795 5.71095 176.656 -51.1941 -3.97569e-016 -0 9.97886 11.8027 -4.66578 90 -1.73937e-015 -3.18055e-015 -23.0987 -9.60916 -174.964 -38.4579 1.59028e-015 9.93923e-017 8.09534 1.89319 -12.3209 90 -2.42657e-020 3.18055e-015 
585.96 83.0258 -27.216 19.3272 80.8711 72.2681 4.15369 -4.52558 1.03866 8.4282 -8.96225 2.41582 8.42819 -8.96225 2.41581 -8.30589e-012 -9.0191e-006 -5.27751e-005 -1.51896 4.98457 -0.568475 179.694 1.11022 -74.6137 -14.8156 -1.4837 63.2327 -45.9391 3.18055e-015 -3.18055e-015 -53.2549 -45.4487 -49.7624 -176.686 11.1003 73.2618 23.2277 14.8806 -53.789 -11.7033 0 -3.18055e-015 -38.7446 39.4206 40.1903 6.6725 5.14393 -179.039 -60.1875 3.97569e-016 -7.95139e-016 -13.4893 12.7514 -20.343 90 0 7.15625e-015 -18.7141 -10.7734 -173.817 -38.5411 -4.77083e-015 -1.98785e-016 11.57 0.495357 -12.2201 90 1.85784e-020 1.59028e-015 
585.731 83.7502 -23.1307 34.2804 79.483 56.6965 4.16621 -3.78602 1.02327 8.42678 -7.48623 2.32776 8.42678 -7.48623 2.32775 -8.30907e-012 -9.0191e-006 -5.27751e-005 -0.363182 4.44447 0.508292 179.639 1.33916 -74.9096 -12.76 -0.0565942 63.6603 -40.0166 -6.36111e-015 -3.18055e-015 -51.6084 -44.9969 -47.9727 -176.882 10.5241 73.3916 19.9666 14.1296 -55.0174 -13.5146 -1.27222e-014 3.18055e-015 -37.8583 40.0477 39.3273 0.322961 7.22678 -177.855 -65.1355 0 -0 -14.6685 8.73406 -16.6842 90 -4.77083e-015 -3.97569e-015 -14.789 -10.3678 -172.759 -37.6598 4.77083e-015 3.57812e-015 14.958 -1.8902 -12.1395 90 -2.48481e-017 -0 
585.577 84.7278 -19.3137 52.1121 74.886 38.7729 4.30527 -2.68432 0.706203 8.65735 -5.30723 1.61511 8.65735 -5.30723 1.6151 -8.30748e-012 -9.0191e-006 -5.27751e-005 0.564797 4.99149 1.87185 179.875 0.461904 -74.8067 -9.99744 1.66006 63.0239 -35.7075 3.18055e-015 3.18055e-015 -50.0867 -44.7951 -46.4804 -177.146 9.44196 73.0973 14.8303 13.0083 -55.8862 -16.3718 -3.18055e-015 -1.59028e-015 -37.5873 40.7162 39.1056 -4.99716 11.1863 -177.539 -68.1764 -1.73937e-016 -4.96962e-017 -6.80664 5.69632 -9.01291 90 -7.95139e-016 -1.59028e-015 -10.2537 -5.71039 -171.603 -35.2927 -1.59028e-015 1.59028e-015 16.6797 -3.63549 -11.5751 90 4.96962e-017 -0 
585.558 85.7789 -15.6973 62.8486 68.649 28.0486 4.46819 -1.66722 0.369966 8.95265 -3.29999 0.869465 8.95265 -3.29999 0.869456 -8.3043e-012 -9.0191e-006 -5.27751e-005 0.882087 6.431 2.57987 -179.858 -0.488318 -73.7495 -5.639 4.06701 61.2439 -33.6742 3.18055e-015 -1.59028e-015 -50.4675 -45.2537 -47.2483 -177.54 8.10597 73.0569 8.13679 12.5481 -56.8141 -19.4435 -6.36111e-015 -2.78299e-015 -38.5442 41.4614 39.9165 -9.17987 14.6613 -177.441 -66.4264 -3.97569e-016 -1.59028e-015 0.267078 2.78084 -0.100236 90 -7.95139e-016 3.18055e-015 -7.19737 -0.30715 -171.846 -34.0857 -3.18056e-015 1.59028e-015 16.5011 -5.20973 -5.95776 90 -2.48481e-016 1.59028e-015 
585.759 86.7511 -12.1969 68.9306 62.026 21.7933 4.56242 -0.809862 0.0839835 9.12738 -1.60999 0.232283 9.12738 -1.60999 0.232273 -8.30907e-012 -9.0191e-006 -5.27751e-005 1.53694 7.96008 2.63554 -179.561 -1.39647 -72.5543 -1.16644 7.17411 59.1416 -32.5585 0 -0 -52.8842 -46.6097 -50.4294 -178.039 6.63923 73.5005 1.88402 12.9067 -58.3609 -22.7071 -1.27222e-014 -3.57812e-015 -40.2281 42.0165 41.4111 -12.974 15.8468 -176.21 -60.6815 1.59028e-015 -1.59028e-015 5.72345 0.0406019 -0.424368 90 1.59028e-015 -4.77083e-015 -4.36762 3.21108 -173.018 -32.8325 3.18056e-015 -0 17.2307 -7.61362 -0.172742 90 1.39149e-015 -3.18055e-015 
586.066 87.2826 -8.71358 72.7053 55.284 17.7803 4.63107 -0.0188009 -0.194377 9.26205 -0.0527485 -0.38649 9.26205 -0.0527492 -0.386499 -8.30907e-012 -9.0191e-006 -5.27751e-005 2.62355 8.64757 2.57073 -179.206 -2.44982 -72.0412 2.2308 10.4782 57.7188 -31.3517 3.18055e-015 -0 -55.4453 -47.6231 -53.6507 -178.467 5.36804 74.0413 -4.64621 13.5006 -59.8857 -26.3878 3.18055e-015 1.59028e-015 -41.6658 43.4008 43.0183 -14.7899 15.4288 -175.208 -50.4955 0 -6.36111e-015 7.40457 -0.590124 -1.40355 90 0 -0 -2.3544 5.24147 -174.715 -32.8933 6.36111e-015 -4.77083e-015 19.1422 -9.73902 5.32313 90 -9.93923e-016 3.18055e-015 
586.373 87.1043 -5.12994 74.988 49.1053 15.2386 4.67012 0.639168 -0.44161 9.34584 1.24072 -0.933771 9.34584 1.24072 -0.93378 -8.30589e-012 -9.0191e-006 -5.27751e-005 3.78264 8.12039 2.56854 -178.917 -3.40113 -72.3176 4.67648 14.1553 57.2541 -30.463 0 -3.97569e-015 -55.9316 -48.2565 -54.5169 -178.797 4.50187 75.0191 -11.2672 14.348 -61.6031 -30.4597 3.18055e-015 1.59028e-015 -42.7197 44.3137 44.3935 -14.4291 13.0997 -174.785 -37.96 -6.36111e-015 -2.38542e-015 5.03086 1.78687 -2.8488 90 0 9.54166e-015 -1.20346 3.17215 -176.972 -34.5348 6.36111e-015 6.36111e-015 22.1707 -10.5705 8.3691 90 3.97569e-016 -3.18055e-015 
586.63 86.214 -1.36202 76.3225 44.1167 13.3106 4.67851 1.06688 -0.565077 9.36965 2.08454 -1.21551 9.36965 2.08454 -1.21552 -8.30907e-012 -9.0191e-006 -5.27751e-005 4.62702 6.27018 2.72255 -178.709 -4.2403 -73.053 6.64547 17.783 57.5703 -29.9747 9.54166e-015 -2.38542e-015 -54.1108 -48.5381 -52.7053 -178.988 4.16708 76.3369 -18.4436 15.0249 -62.9347 -35.7481 3.18055e-015 1.59028e-015 -42.9484 45.6275 44.9641 -13.2054 8.54531 -173.922 -27.7466 -9.54166e-015 -0 1.96573 4.23152 -5.68408 90 -3.97569e-016 3.18055e-015 -1.23967 -2.56649 -179.246 -37.5474 0 -1.59028e-015 25.7564 -10.6149 8.22686 90 -2.38542e-015 6.36111e-015 
586.933 84.7164 2.26813 77.3571 38.5952 11.8934 4.73435 1.49763 -0.78631 9.49346 2.92556 -1.69435 9.49346 2.92555 -1.69436 -8.3051e-012 -9.0191e-006 -5.27751e-005 4.76035 3.6819 3.25617 -178.363 -5.47609 -73.3234 8.05824 21.0409 57.6566 -30.0591 -6.36111e-015 3.97569e-016 -52.0989 -48.7 -50.6373 -178.968 4.418 76.8345 -26.5582 15.4668 -62.8741 -42.3951 0 -0 -43.7522 45.939 46.0471 -13.664 5.39547 -171.593 -26.8425 6.36111e-015 2.78299e-015 2.72027 4.30667 -9.3623 90 4.96962e-017 -3.18055e-015 -2.86818 -6.88948 178.412 -42.3548 0 3.18056e-015 29.5169 -9.92027 5.50571 90 -4.77083e-015 -9.54166e-015 
587.422 83.1959 5.4475 78.402 33.4622 11.6353 4.93129 1.79248 -1.26624 9.90785 3.46942 -2.68376 9.90785 3.46942 -2.68377 -8.30828e-012 -9.0191e-006 -5.27751e-005 3.55317 0.516415 4.46957 -177.892 -6.79881 -72.7244 9.26246 22.1997 57.0163 -29.9391 6.36111e-015 -1.09332e-015 -50.3419 -49.1586 -48.9777 -178.923 4.60139 76.812 -32.8099 15.8287 -62.8386 -50.7076 0 -3.18055e-015 -43.9553 45.3778 45.6031 -14.7541 3.98262 -170.699 -30.9259 -3.18055e-015 -3.18055e-015 6.75028 5.08812 -11.93 90 -1.21329e-020 6.36111e-015 -4.90232 -8.42165 176.175 -46.1987 -3.18056e-015 -3.18056e-015 32.1175 -7.39212 -0.853687 90 -7.95139e-016 3.18055e-015 
588.065 82.342 8.042 80.0284 29.6971 11.4784 5.13384 1.9135 -1.86811 10.3353 3.65147 -3.90301 10.3353 3.65147 -3.90302 -8.30589e-012 -9.0191e-006 -5.27751e-005 1.47087 -3.45332 6.99258 -177.589 -7.32827 -71.7291 10.3864 20.1372 55.96 -27.8944 0 -4.07509e-015 -49.2029 -49.0109 -47.7478 -178.921 4.3656 76.1044 -36.61 15.1912 -63.393 -59.4784 0 6.36111e-015 -47.5108 44.1156 48.0574 -15.5494 2.55797 -171.103 -33.5401 -6.36111e-015 -3.97569e-015 9.7368 5.47252 -13.5125 90 -1.21329e-020 3.18055e-015 -7.94418 -9.09916 173.862 -49.1709 0 -0 33.6711 -3.83468 -3.03044 90 -7.76503e-019 -6.36111e-015 
588.491 82.3837 10.0619 81.2092 26.9364 10.0866 5.32955 2.07197 -2.12799 10.742 3.93617 -4.4433 10.742 3.93617 -4.44331 -8.3043e-012 -9.0191e-006 -5.27751e-005 0.239281 -8.09772 9.94903 -178.004 -6.144 -71.9617 11.7604 16.4919 56.1244 -24.7744 0 -4.17448e-015 -48.7594 -47.5244 -46.7874 -179.005 3.95495 75.8731 -38.1952 13.351 -65.3315 -66.2116 0 3.18055e-015 -52.1496 42.4124 51.2835 -14.662 0.508462 -170.309 -32.685 -3.18055e-015 2.38542e-015 10.7331 5.00061 -14.8141 90 0 -3.18055e-015 -9.6468 -11.2652 173.25 -49.2106 1.59028e-015 -0 33.2604 -1.63517 -2.79799 90 -1.21329e-020 -0 
588.908 82.8803 11.5503 82.321 25.1272 8.44835 5.3923 1.95965 -2.24707 10.8659 3.69827 -4.6721 10.8659 3.69827 -4.67211 -8.31066e-012 -9.0191e-006 -5.27751e-005 0.635302 -11.536 12.0086 -178.442 -5.03432 -72.7806 12.3017 13.5586 56.9386 -24.0994 -6.36111e-015 -1.44119e-015 -49.7893 -46.5679 -47.5744 -179.012 3.95962 75.9845 -40.879 10.5398 -66.8382 -69.4383 -3.18055e-015 3.18055e-015 -54.7371 41.5299 53.2617 -13.968 0.340624 -169.436 -31.2001 3.18055e-015 -1.59028e-015 10.9893 5.39866 -14.9253 90 0 -0 -10.8116 -15.4819 172.799 -47.3896 -1.59028e-015 -0 31.7027 -0.917092 -2.70911 90 -1.21329e-020 -3.18055e-015 
589.295 83.626 12.5992 83.394 23.3014 6.56843 5.39841 1.66035 -2.28617 10.8648 3.09731 -4.72102 10.8648 3.09731 -4.72103 -8.30271e-012 -9.0191e-006 -5.27751e-005 1.83284 -13.2651 13.2714 -178.587 -4.65585 -73.0961 11.3273 11.7153 56.8033 -26.4816 3.18055e-015 -2.38542e-015 -51.1469 -47.1951 -49.269 -179.024 3.93493 76.059 -44.1925 7.76884 -67.3946 -69.5986 0 6.36111e-015 -51.6331 43.087 50.4267 -13.6168 2.08514 -168.384 -29.7069 6.36111e-015 -6.36111e-015 10.7127 5.68804 -14.2009 90 0 9.54166e-015 -11.0952 -19.7949 172.782 -44.322 -1.59028e-015 -9.93923e-017 29.5381 -1.26922 -2.46959 90 1.21329e-020 -7.95139e-016 
